<?xml version="1.0" encoding="utf-8"?>
<!-- Svg Vector Icons : http://www.sfont.cn -->
<!DOCTYPE svg PUBLIC "-//W3C//DTD SVG 1.1//EN" "http://www.w3.org/Graphics/SVG/1.1/DTD/svg11.dtd">
<svg version="1.1" xmlns="http://www.w3.org/2000/svg" xmlns:xlink="http://www.w3.org/1999/xlink" x="0px" y="0px" viewBox="0 0 1000 1000" enable-background="new 0 0 1000 1000" xml:space="preserve">
<metadata> Svg Vector Icons : http://www.sfont.cn </metadata>
<g><g transform="translate(0.000000,511.000000) scale(0.100000,-0.100000)"><path d="M2544.1,2495.3L100,51.2l421.4-421.4l421.4-421.4L2971.4,1237L5000,3265.6L7028.6,1237L9057.2-791.6l421.4,421.4L9900,51.2L7455.9,2495.3C6109.4,3841.8,5005.9,4941.4,5000,4941.4S3890.6,3841.8,2544.1,2495.3z"/><path d="M1707.2,3153.9V2030.8l597.8,597.8l597.8,597.8v523.3V4275H2305h-597.8V3153.9z"/><path d="M3122.3,1015.5L1256.4-850.4v-1936.5v-1934.5h1215.2h1215.2v1685.6v1685.6H5000h1313.2v-1685.6v-1685.6h1215.2h1215.2v1936.5v1934.5L6875.7,1017.5C5850.6,2042.6,5005.9,2883.4,5000,2883.4S4149.4,2042.6,3122.3,1015.5z"/></g></g>
</svg>