<?xml version="1.0" encoding="utf-8"?>
<!-- Svg Vector Icons : http://www.sfont.cn -->
<!DOCTYPE svg PUBLIC "-//W3C//DTD SVG 1.1//EN" "http://www.w3.org/Graphics/SVG/1.1/DTD/svg11.dtd">
<svg version="1.1" xmlns="http://www.w3.org/2000/svg" xmlns:xlink="http://www.w3.org/1999/xlink" x="0px" y="0px" viewBox="0 0 1000 1000" enable-background="new 0 0 1000 1000" xml:space="preserve">
<metadata> Svg Vector Icons : http://www.sfont.cn </metadata>
<g><g transform="translate(0.000000,511.000000) scale(0.100000,-0.100000)"><path d="M375.1,3865.5c-87-35.6-177.9-116.6-223.3-201.6c-39.5-77.1-43.5-112.7-49.4-517.9c-7.9-492.2,5.9-596.9,96.9-707.6c120.6-146.3,150.2-152.2,709.6-152.2s589,5.9,709.6,152.2c90.9,110.7,104.8,215.4,96.8,707.6c-5.9,421-7.9,436.8-55.3,523.8c-27.7,47.4-88.9,114.6-134.4,148.2l-87,59.3l-506,4C622.2,3885.2,404.8,3877.3,375.1,3865.5z"/><path d="M2573.1,3845.7c-100.8-51.4-187.8-150.2-219.4-253c-27.7-96.9-29.6-913.2,0-1016c25.7-92.9,118.6-201.6,217.4-253c73.1-37.6,150.2-37.6,3546-37.6c3413.5,0,3470.8,0,3546,39.5c108.7,53.4,193.7,166,221.4,284.6c13.8,63.3,17.8,262.9,13.8,535.6c-5.9,421-7.9,436.8-55.3,523.8c-27.7,47.4-88.9,114.6-134.4,148.2l-87,59.3l-3480.7,5.9l-3482.7,4L2573.1,3845.7z"/><path d="M420.6,900.6C302,873,169.6,748.4,128.1,625.9c-27.7-81-31.6-172-25.7-559.4l5.9-462.5l59.3-94.9c43.5-71.1,88.9-112.7,166-152.2l104.8-55.4h470.4h470.4l104.8,55.4c77.1,39.5,122.5,81,166,152.2l59.3,94.9l5.9,460.5c7.9,547.5,0,593-134.4,721.5c-73.1,71.2-116.6,96.9-195.7,114.6C1262.6,926.3,539.2,926.3,420.6,900.6z"/><path d="M2638.3,892.7c-118.6-31.6-253-162.1-284.6-278.7c-11.9-45.5-21.7-262.9-21.7-521.8c0-425,2-448.7,47.4-543.6c53.4-116.6,90.9-152.2,209.5-205.6c88.9-39.5,112.7-41.5,3530.1-41.5h3443.2l104.8,55.4c77.1,39.5,122.5,81,166,152.2l59.3,94.9l5.9,452.6c7.9,549.5-5.9,620.6-146.3,743.2c-61.3,55.4-120.6,87-187.8,100.8C9406.1,936.2,2766.8,928.3,2638.3,892.7z"/><path d="M385-2086c-94.9-33.6-183.8-110.7-233.2-199.6c-39.5-77.1-43.5-112.7-49.4-517.9c-7.9-492.2,5.9-596.9,96.9-707.6c120.6-146.3,154.2-154.2,707.6-154.2c458.6-2,496.1,0,569.3,39.5c102.8,51.4,193.7,160.1,223.3,266.8c15.8,55.3,19.8,231.3,15.8,535.6c-5.9,426.9-7.9,460.5-49.4,537.6c-49.4,92.9-140.3,166-241.1,201.6C1337.7-2056.3,468-2056.3,385-2086z"/><path d="M2622.5-2082c-96.9-29.6-193.7-120.6-243.1-225.3c-45.5-96.8-47.4-118.6-47.4-545.5c0-249,9.9-478.3,21.7-519.8c25.7-94.9,120.6-201.6,221.4-253c77.1-41.5,100.8-41.5,3542-41.5c3457,0,3462.9,0,3544,41.5c108.7,55.3,195.7,168,223.3,286.6c13.8,63.2,17.8,262.9,13.8,535.6c-5.9,432.9-5.9,434.8-61.3,527.7c-57.3,100.8-124.5,154.2-229.3,189.7C9526.6-2058.3,2713.4-2054.3,2622.5-2082z"/></g></g>
</svg>