<?xml version="1.0" encoding="utf-8"?>
<!-- Svg Vector Icons : http://www.sfont.cn -->
<!DOCTYPE svg PUBLIC "-//W3C//DTD SVG 1.1//EN" "http://www.w3.org/Graphics/SVG/1.1/DTD/svg11.dtd">
<svg version="1.1" xmlns="http://www.w3.org/2000/svg" xmlns:xlink="http://www.w3.org/1999/xlink" x="0px" y="0px" viewBox="0 0 1000 1000" enable-background="new 0 0 1000 1000" xml:space="preserve">
<metadata> Svg Vector Icons : http://www.sfont.cn </metadata>
<g><g transform="translate(0.000000,511.000000) scale(0.100000,-0.100000)"><path d="M447,4979c-149.5-57.8-263.2-173.5-319-327c-35.9-103.7-37.9-3449.4-2-3549.1c47.9-129.6,145.6-237.3,265.2-297.1L508.8,748h1724.7c1706.8,0,1724.7,0,1814.4,41.9c107.7,49.8,205.4,143.6,265.2,255.2l43.9,81.7l6,1702.8c6,1906.1,10,1842.3-131.6,1999.9c-39.9,45.9-117.6,103.7-173.5,127.6l-99.7,47.9l-1724.7-2C965.4,5003,492.8,4995,447,4979z"/><path d="M5993.9,4985c-79.8-23.9-195.4-109.7-249.2-179.4C5641,4664,5643,4709.9,5643,2883.5c0-1106.6,8-1722.7,19.9-1770.6c33.9-119.6,137.6-237.3,269.2-305.1l117.6-59.8h1714.7c1605.1,0,1722.7,2,1810.4,35.9c111.7,43.9,257.2,193.4,297.1,305.1c23.9,63.8,27.9,380.8,27.9,1802.5c0,1912.1,8,1782.5-131.6,1944c-37.9,41.9-111.7,97.7-167.5,121.6l-99.7,47.9l-1724.7-2C6827.4,5003,6025.8,4993,5993.9,4985z"/><path d="M407.1-575.9c-101.7-45.9-207.4-149.5-259.2-253.2C112-904.9,110-966.7,110-2661.5c0-1694.8,2-1756.6,37.9-1832.4c51.8-103.7,157.5-207.3,259.2-253.2c77.8-35.9,167.5-37.9,1806.5-37.9c1162.4,0,1750.6,8,1800.5,21.9c47.9,12,119.6,61.8,183.4,123.6c177.5,173.5,169.5,69.8,169.5,1977.9c0,1862.3,4,1794.5-141.6,1954c-45.9,47.9-119.6,105.7-165.5,129.6C3976.1-538,3950.2-538,2231.5-538C574.6-538,484.8-540,407.1-575.9z"/><path d="M5926.1-589.8c-121.6-59.8-209.4-159.5-253.2-285.1c-45.9-133.6-45.9-3439.4,0-3573c43.9-125.6,131.6-225.3,253.2-285.1l103.7-51.8h1722.7c1274.1,0,1744.6,6,1802.5,23.9c113.7,33.9,265.2,175.5,309.1,291.1c33.9,87.7,35.9,197.4,35.9,1808.4s-2,1720.7-35.9,1808.4c-43.9,115.6-195.4,257.2-309.1,291.1C9497.1-544,9026.6-538,7752.5-538H6029.8L5926.1-589.8z"/></g></g>
</svg>