<?xml version="1.0" encoding="utf-8"?>
<!-- Svg Vector Icons : http://www.sfont.cn -->
<!DOCTYPE svg PUBLIC "-//W3C//DTD SVG 1.1//EN" "http://www.w3.org/Graphics/SVG/1.1/DTD/svg11.dtd">
<svg version="1.1" xmlns="http://www.w3.org/2000/svg" xmlns:xlink="http://www.w3.org/1999/xlink" x="0px" y="0px" viewBox="0 0 1000 1000" enable-background="new 0 0 1000 1000" xml:space="preserve">
<metadata> Svg Vector Icons : http://www.sfont.cn </metadata>
<g><g transform="translate(0.000000,511.000000) scale(0.100000,-0.100000)"><path d="M2719.8,4503.6l-84.9-5.9v-918v-920l-100.7-110.5c-302.1-337.6-552.8-843-659.4-1326.7c-49.4-227-61.2-791.7-23.7-1036.5c59.2-367.2,187.5-730.5,369.2-1036.5c49.4-81,88.8-154,88.8-159.9c0-5.9-469.9-448.1-1046.3-983.2C105.9-3067.5,100-3073.4,100-3288.6c0-84.9,13.8-148.1,45.4-213.2c53.3-108.6,193.5-238.9,292.2-272.4c90.8-29.6,294.2-13.8,381,27.6c39.5,19.7,462,394.8,937.7,835.1L2625-2112l9.9-1081.9l9.9-1081.9l3628.6-5.9l3626.6-4v3372v3372L8875.4,3479L7852.7,4499.6h-126.3C7051.2,4505.5,2783,4507.5,2719.8,4503.6z M7452,3048.6v-977.2h1026.6h1026.6V-870.2v-2941.6H6267.4H3029.7v1026.6c0,564.6,5.9,1026.6,11.8,1026.6c7.9,0,67.1-33.6,134.2-77c655.4-414.6,1470.8-548.8,2221-367.2c209.3,51.3,477.8,148.1,647.5,233c341.6,173.7,779.8,542.9,1006.8,850.9C7446-586,7629.7-29.2,7629.7,630.2c0,590.3-150,1101.6-460,1575.4c-428.4,655.4-1072,1099.6-1840,1271.4c-260.6,57.3-762.1,71.1-1042.4,27.6c-390.9-63.2-740.3-187.6-1066.1-383c-92.8-57.3-173.7-102.7-181.6-102.7c-13.8,0-11.8,977.2,4,993c5.9,7.9,1000.9,13.8,2211.1,13.8H7452V3048.6z M9051.1,2754.4l286.3-288.2h-696.9h-694.9v683.1v683.1l410.6-394.8C8581.2,3220.3,8893.2,2912.4,9051.1,2754.4z M5286.2,2892.6c827.2-213.2,1468.8-856.8,1684-1684c55.3-207.3,86.9-677.2,59.2-862.7l-13.8-90.8h-961.5c-910.1,0-965.4-2-1046.3-39.5c-203.3-92.8-211.2-430.4-11.8-554.8c59.2-35.5,106.6-37.5,933.8-37.5c540.9,0,870.6-7.9,870.6-19.7c0-69.1-254.7-426.4-426.4-600.2c-503.4-501.4-1166.8-748.2-1853.8-683.1C3312-1565.2,2398-574.1,2398,620.3c0,1151,787.7,2092.7,1932.7,2309.8C4567.6,2975.5,5041.4,2957.8,5286.2,2892.6z"/><path d="M3213.3,1281.7c-191.5-116.5-179.6-394.8,21.7-491.6c80.9-39.5,112.5-41.5,1188.5-41.5c1050.3,0,1107.5,2,1188.5,39.5c67.1,29.6,92.8,57.2,126.3,130.3c63.2,148.1,23.7,284.3-108.6,363.3c-61.2,37.5-108.6,39.5-1208.2,39.5C3321.9,1321.1,3274.5,1319.2,3213.3,1281.7z"/></g></g>
</svg>