<?xml version="1.0" encoding="utf-8"?>
<!-- Svg Vector Icons : http://www.sfont.cn -->
<!DOCTYPE svg PUBLIC "-//W3C//DTD SVG 1.1//EN" "http://www.w3.org/Graphics/SVG/1.1/DTD/svg11.dtd">
<svg version="1.1" xmlns="http://www.w3.org/2000/svg" xmlns:xlink="http://www.w3.org/1999/xlink" x="0px" y="0px" viewBox="0 0 1000 1000" enable-background="new 0 0 1000 1000" xml:space="preserve">
<metadata> Svg Vector Icons : http://www.sfont.cn </metadata>
<g><path d="M676.7,461H539.6V323.6c0-21.7-17.6-39.2-39.2-39.2c-21.7,0-39.2,17.5-39.2,39.2V461H324c-21.7,0-39.2,17.6-39.2,39.2c0,21.7,17.5,39.2,39.2,39.2h137.2v137.3c0,21.6,17.5,39.3,39.2,39.3c21.6,0,39.2-17.5,39.2-39.3V539.5h137.1c21.6,0,39.2-17.5,39.2-39.3C715.9,478.6,698.4,461,676.7,461L676.7,461L676.7,461z M500,10C229.9,10,10,229.8,10,500c0,270.2,219.9,490,490,490c270.2,0,490-219.7,490-490C990,229.8,770.2,10,500,10L500,10L500,10z M500,928.7C263.6,928.7,71.3,736.4,71.3,500C71.3,263.5,263.6,71.3,500,71.3c236.4,0,428.7,192.3,428.7,428.8C928.8,736.4,736.4,928.7,500,928.7L500,928.7L500,928.7z"/></g>
</svg>