<?xml version="1.0" encoding="utf-8"?>
<!-- Svg Vector Icons : http://www.sfont.cn -->
<!DOCTYPE svg PUBLIC "-//W3C//DTD SVG 1.1//EN" "http://www.w3.org/Graphics/SVG/1.1/DTD/svg11.dtd">
<svg version="1.1" xmlns="http://www.w3.org/2000/svg" xmlns:xlink="http://www.w3.org/1999/xlink" x="0px" y="0px" viewBox="0 0 1000 1000" enable-background="new 0 0 1000 1000" xml:space="preserve">
<metadata> Svg Vector Icons : http://www.sfont.cn </metadata>
<g><g transform="translate(0.000000,511.000000) scale(0.100000,-0.100000)"><path d="M1191.3,1884.6c-261.5-68.8-458.2-182.9-658.7-383.4C332,1300.6,249.4,1172.8,161,927l-61-173V124.8c0-603.7,2-635.1,45.2-776.7c123.9-397.2,387.4-707.9,755.1-894.7c326.4-163.2,234-157.3,2326.2-157.3h1848.4l153.4,43.3c420.8,119.9,741.3,377.5,937.9,757c139.6,265.5,157.3,377.5,157.3,973.3v517.1H5824h-499.4l-7.9-466c-5.9-438.5-7.9-473.9-49.2-548.6c-64.9-120-188.8-218.3-308.7-243.8c-70.8-15.7-615.5-19.7-1811-15.7l-1710.7,5.9l-80.6,43.3c-102.2,55-196.6,161.2-224.2,255.6c-13.8,49.2-19.7,237.9-15.7,540.7l5.9,464.1l59,86.5c76.7,106.2,163.2,165.2,287.1,190.7c62.9,13.8,434.6,21.6,1008.7,21.6h910.4L3433,1045c118,326.4,340.2,637.1,589.9,825.9l68.8,53.1l-1376.4-2C1421.4,1922,1329,1920,1191.3,1884.6z"/><path d="M4756.3,1884.6c-578.1-151.4-1002.8-633.2-1087.4-1230.9c-21.6-157.3-27.5-947.8-7.9-998.9c9.8-27.5,74.7-31.5,509.3-31.5h499.4l5.9,487.7c5.9,414.9,11.8,495.5,39.3,546.7c47.2,86.5,137.6,173,226.1,216.3c70.8,35.4,151.4,37.4,1775.6,43.3c1164.1,3.9,1732.3-2,1801.2-15.7c139.6-29.5,247.8-112.1,310.7-237.9c51.1-104.2,51.1-108.1,51.1-550.6v-446.4l-53.1-102.3c-33.4-60.9-88.5-127.8-139.6-165.2l-86.5-60.9l-998.9-5.9l-998.9-5.9L6549.6-825c-104.2-295-312.7-597.8-529-770.8l-110.1-88.5l230.1-5.9c127.8-2,762.9-2,1411.8,0c1081.5,5.9,1189.6,9.8,1287.9,43.3c499.5,165.2,861.3,532.9,1004.8,1014.6c39.3,131.8,43.3,204.5,51.1,658.7c7.9,393.3,3.9,550.6-19.7,680.4c-53.1,312.6-178.9,552.5-407,786.5c-167.1,169.1-350,285.1-580.1,365.7l-157.3,55.1l-1917.2,3.9C4988.3,1922,4892,1920,4756.3,1884.6z"/></g></g>
</svg>