<?xml version="1.0" encoding="utf-8"?>
<!-- Svg Vector Icons : http://www.sfont.cn -->
<!DOCTYPE svg PUBLIC "-//W3C//DTD SVG 1.1//EN" "http://www.w3.org/Graphics/SVG/1.1/DTD/svg11.dtd">
<svg version="1.1" xmlns="http://www.w3.org/2000/svg" xmlns:xlink="http://www.w3.org/1999/xlink" x="0px" y="0px" viewBox="0 0 1000 1000" enable-background="new 0 0 1000 1000" xml:space="preserve">
<metadata> Svg Vector Icons : http://www.sfont.cn </metadata>
<g><g><g><g><path d="M247.7,361l-56.6,56.5l46.8,46.9l56.6-56.6c19.1,13,40.9,22.1,64.5,26.6v80.1h66.3v-80.1c23.5-4.5,45.4-13.6,64.6-26.6l56.6,56.6l46.8-46.9L536.8,361c13-19.2,22.1-41.1,26.6-64.6h80.1v-66.3h-80.1c-4.5-23.5-13.5-45.4-26.6-64.6l56.5-56.4l-46.9-47l-56.6,56.5c-19.1-13-41.1-22-64.6-26.6V11.9H359V92c-23.5,4.6-45.5,13.7-64.6,26.7l-56.6-56.6l-46.8,47l56.6,56.5c-13,19.2-22.2,41-26.6,64.6h-80.3v66.3H221C225.5,319.9,234.7,341.8,247.7,361z M392.3,197.6c36.1,0,65.5,29.3,65.5,65.5c0,36.3-29.4,65.6-65.5,65.6c-36.1,0-65.6-29.3-65.6-65.6C326.7,227,356.1,197.6,392.3,197.6z"/><path d="M987.6,78.9c-6.7-17.9-26.8-27-44.7-20.3l-182.5,68.9c-10,3.8-17.7,12-20.9,22.2l-133,426.5c-90.8,0-395.5,0-435.3,0c-12.5-43.3-92.8-322.9-92.8-322.9c-5.4-18.4-24.7-29.1-43.1-23.8c-18.5,5.3-29.2,24.6-23.8,43.1l100.1,348c4.3,14.9,17.9,25.3,33.4,25.3h440.9c-9.5,32.8-21.8,75.2-27.7,95.7c-46.3,0-417.5,0-417.5,0c-19.2,0-34.7,15.5-34.7,34.8s15.5,34.7,34.7,34.7h443.6c15.5,0,29.1-10.2,33.6-25l47.8-165.3c0-0.1,0-0.3,0-0.4c3.5-11.1,126-404,135.3-433.7c26.5-10,166.6-62.9,166.6-62.9c13.9-5.3,22.5-18.6,22.5-32.6C990,87.1,989.2,82.9,987.6,78.9z"/><circle cx="578.1" cy="911.3" r="76.9"/><circle cx="159" cy="911.3" r="76.9"/></g></g><g></g><g></g><g></g><g></g><g></g><g></g><g></g><g></g><g></g><g></g><g></g><g></g><g></g><g></g><g></g></g><g></g><g></g><g></g><g></g><g></g><g></g><g></g><g></g><g></g><g></g><g></g><g></g><g></g><g></g><g></g></g>
</svg>