<?xml version="1.0" encoding="utf-8"?>
<!-- Svg Vector Icons : http://www.sfont.cn -->
<!DOCTYPE svg PUBLIC "-//W3C//DTD SVG 1.1//EN" "http://www.w3.org/Graphics/SVG/1.1/DTD/svg11.dtd">
<svg version="1.1" xmlns="http://www.w3.org/2000/svg" xmlns:xlink="http://www.w3.org/1999/xlink" x="0px" y="0px" viewBox="0 0 1000 1000" enable-background="new 0 0 1000 1000" xml:space="preserve">
<metadata> Svg Vector Icons : http://www.sfont.cn </metadata>
<g><g transform="translate(0.000000,511.000000) scale(0.100000,-0.100000)"><path d="M3910,4251.5c-200-30-378-128-524-286c-178-194-226-356-226-772c0-274,4-320,40-376c100-166,340-168,456-4c28,38,36,110,44,370c10,314,12,322,66,394c114,150,68,144,1178,150c662,4,1022-2,1074-16c44-12,108-44,142-72c106-90,120-140,120-422c0-140,10-288,20-328c48-172,256-252,400-154c110,74,120,110,120,470c0,256-8,346-36,440c-100,316-372,550-704,604C5930,4273.5,4068,4275.5,3910,4251.5z"/><path d="M780,2325.5c-326-110-566-364-650-684c-24-92-30-240-30-674v-556h1980h1980v150c0,84,12,180,28,216c32,78,122,164,198,192c36,14,298,22,712,22c648,0,656,0,744-46c132-70,178-164,178-370v-164l1986,4l1984,6l6,440c6,572-14,752-104,944c-124,262-350,452-630,534c-98,28-512,32-4180,32l-4072-2L780,2325.5z"/><path d="M100-1592.5c0-1036,8-1638,22-1696c82-360,406-672,768-740c86-16,1074-20,3546-16l3424,6l-112,88c-238,186-466,546-550,872c-54,206-58,558-10,760c274,1154,1570,1672,2552,1020c74-50,140-90,148-90c6,0,12,316,12,700v700H7910H5922l-6-628c-6-600-8-632-48-684c-22-30-66-74-96-96c-54-40-78-42-778-42h-724l-68,48c-134,96-142,140-142,808v594H2080H100V-1592.5z"/><path d="M8680-1516.5c0-86,0-86-84-100c-190-30-342-132-422-282c-36-66-44-114-44-270c0-314,80-436,444-674c124-82,242-172,260-200c42-64,66-288,42-380c-22-80-100-110-152-58c-26,26-36,80-40,242l-8,210h-268c-234,0-270-4-282-34c-24-60,28-380,78-480c60-118,220-234,372-270l104-26v-104v-106h128h130l6,104l6,104l94,24c218,56,368,196,430,406c44,154,28,438-32,566c-66,136-108,174-428,384c-266,174-294,196-316,268c-44,152,20,286,122,254c46-14,58-54,64-210l6-110l278-6l278-6l-10,156c-18,284-156,446-426,498c-68,12-70,16-70,100v88h-130h-130V-1516.5z"/></g></g>
</svg>