<?xml version="1.0" encoding="utf-8"?>
<!-- Svg Vector Icons : http://www.sfont.cn -->
<!DOCTYPE svg PUBLIC "-//W3C//DTD SVG 1.1//EN" "http://www.w3.org/Graphics/SVG/1.1/DTD/svg11.dtd">
<svg version="1.1" xmlns="http://www.w3.org/2000/svg" xmlns:xlink="http://www.w3.org/1999/xlink" x="0px" y="0px" viewBox="0 0 1000 1000" enable-background="new 0 0 1000 1000" xml:space="preserve">
<metadata> Svg Vector Icons : http://www.sfont.cn </metadata>
<g><g transform="translate(0.000000,511.000000) scale(0.100000,-0.100000)"><path d="M2333.2,4055c-112.3-27.6-224.7-118.3-281.9-234.6l-55.2-108.4V3241c0-315.4,7.9-498.7,23.7-553.9c31.5-106.4,177.4-252.3,283.8-283.8c108.4-31.5,7172.6-35.5,7286.9-2c96.6,25.6,226.7,143.9,272,244.4c31.5,69,37.5,138,37.5,577.5c0,406-5.9,510.5-31.5,571.6c-37.5,92.6-114.3,173.5-214.9,226.7l-78.8,43.4l-3587.3,3.9C4014.5,4068.8,2370.6,4062.9,2333.2,4055z"/><path d="M852.9,4029.4c0-43.4-114.3-165.6-189.2-201c-39.4-17.7-112.3-39.4-163.6-47.3c-84.8-11.8-90.7-15.8-96.6-74.9l-5.9-63.1l163.6-5.9l163.6-5.9l5.9-624.8l3.9-626.8h187.3h187.2v837.7V4055H981.1C890.4,4055,852.9,4047.1,852.9,4029.4z"/><path d="M2307.6,932.9c-145.9-51.2-242.4-147.8-289.7-285.8c-29.6-90.7-29.6-965.8,0-1068.3c31.5-98.6,120.2-207,220.7-260.2l82.8-43.4l3567.6-5.9c2538.7-3.9,3597.1,0,3668.1,15.8c124.2,25.6,254.3,130.1,305.5,244.4c31.5,71,37.5,138,37.5,579.5c0,557.8-5.9,587.4-134,719.4c-138,141.9,130.1,132.1-3825.8,132.1C3023.1,958.5,2366.7,954.6,2307.6,932.9z"/><path d="M230.1,893.5c-57.2-47.3-57.2-49.3-63.1-305.5l-7.9-258.2h199.1h199.1v203c0,132.1,7.9,210.9,23.7,226.7c15.8,15.8,92.6,23.7,216.8,23.7c232.6,0,232.6,0,232.6-260.2c0-177.4-2-187.2-53.2-236.5C945.6,258.8,778,160.3,600.6,65.7C96.1-198.5,103.9-188.6,103.9-517.8v-216.8h650.4h650.4v78.8v78.8H951.5H498.2v169.5c0,161.6,2,171.5,57.2,220.7c31.5,29.6,197.1,124.2,368.6,210.9c189.2,96.6,343,189.2,396.2,238.5l84.8,80.8V590c0,366.6,47.3,339-597.2,346.9l-522.3,5.9L230.1,893.5z"/><path d="M245.9-2175.4c-104.5-31.5-141.9-114.3-141.9-317.3v-173.5h185.3h185.3l7.9,138c9.9,197.1,25.6,207,283.8,207c262.1,0,264.1-2,264.1-268.1c0-274-9.9-281.9-293.7-289.7l-218.8-7.9v-76.9v-76.9h205c295.7,0,295.7-2,303.5-331.1c7.9-256.2,7.9-258.2-43.4-289.7c-39.4-27.6-88.7-31.5-246.4-25.6c-128.1,3.9-207,15.8-222.7,31.5c-15.8,15.8-27.6,94.6-31.5,210.9l-7.9,187.2H287.3H100l7.9-224.7c9.9-354.8,31.5-366.6,656.4-366.6c640.6,0,640.6,0,640.6,427.7c0,309.5-13.8,366.6-110.4,429.7c-55.2,35.5-55.2,35.5-11.8,51.2c23.7,9.9,61.1,45.4,82.8,80.8c33.5,55.2,39.4,100.5,39.4,315.4c0,386.3-7.9,390.3-670.2,388.3C502.1-2157.7,281.3-2165.6,245.9-2175.4z"/><path d="M2291.8-2179.4c-96.6-31.5-242.4-183.3-272-281.9c-15.8-55.2-23.7-238.5-23.7-551.9c0-457.3,2-475,47.3-573.6c59.1-124.2,171.5-212.9,313.4-242.4c71-13.8,1184.6-19.7,3660.2-15.8l3557.7,5.9l78.8,43.4c100.5,53.2,177.4,134,214.9,226.7c25.6,59.1,31.5,165.6,31.5,573.6c0,494.7,0,500.6-49.3,599.2c-53.2,106.4-153.7,191.2-268,222.7C9484.1-2143.9,2382.5-2151.8,2291.8-2179.4z"/></g></g>
</svg>