<?xml version="1.0" encoding="utf-8"?>
<!-- Svg Vector Icons : http://www.sfont.cn -->
<!DOCTYPE svg PUBLIC "-//W3C//DTD SVG 1.1//EN" "http://www.w3.org/Graphics/SVG/1.1/DTD/svg11.dtd">
<svg version="1.1" xmlns="http://www.w3.org/2000/svg" xmlns:xlink="http://www.w3.org/1999/xlink" x="0px" y="0px" viewBox="0 0 1000 1000" enable-background="new 0 0 1000 1000" xml:space="preserve">
<metadata> Svg Vector Icons : http://www.sfont.cn </metadata>
<g><g transform="translate(0.000000,511.000000) scale(0.100000,-0.100000)"><path d="M885.3,4991.9c-340.1-49.7-646.4-316.2-747.8-652.3c-39.8-129.3-39.8-177-35.8-4288l6-4156.7l63.6-135.2c121.3-256.6,318.2-431.6,576.8-511.1c127.3-39.8,179-39.8,4254.1-39.8c4124.9,0,4126.9,0,4248.2,41.8c288.4,95.5,489.2,298.3,596.6,598.7l45.7,125.3l6,4017.5c4,2724.7-2,4069.2-15.9,4176.6c-55.7,425.6-369.9,757.7-775.6,823.4C8948.1,5017.8,1062.3,5017.8,885.3,4991.9z M3978,2657c602.6-650.4,1103.8-1183.4,1111.8-1183.4c7.9,0,509.1,533,1113.8,1183.4c692.1,745.8,1105.8,1179.4,1119.7,1169.4c13.9-8,304.3-272.5,644.4-588.7l622.5-574.8l-413.7-441.5C7108.4,1077.8,6293,196.8,6287,182.8c-2-7.9,509.1-562.8,1139.6-1233.1c628.5-670.2,1143.6-1225.1,1143.6-1235.1c0-23.9-1233.1-1163.5-1258.9-1163.5c-12,0-513.1,523.1-1113.8,1163.5c-600.6,640.4-1097.8,1165.4-1103.8,1167.5c-8,2-505.2-523.1-1107.8-1167.5c-600.6-642.4-1101.8-1171.4-1109.8-1171.4c-21.9-2-1266.9,1149.6-1266.9,1171.4c0,9.9,511.1,564.8,1133.6,1237.1C3367.4-378,3874.5,176.9,3872.5,182.8c-4,8-517.1,568.8-1143.6,1247L1591.3,2664.9l636.4,586.7c348,324.2,638.4,588.7,644.4,588.7C2876.1,3840.3,3373.3,3307.3,3978,2657z"/></g></g>
</svg>