<?xml version="1.0" encoding="utf-8"?>
<!-- Svg Vector Icons : http://www.sfont.cn -->
<!DOCTYPE svg PUBLIC "-//W3C//DTD SVG 1.1//EN" "http://www.w3.org/Graphics/SVG/1.1/DTD/svg11.dtd">
<svg version="1.1" xmlns="http://www.w3.org/2000/svg" xmlns:xlink="http://www.w3.org/1999/xlink" x="0px" y="0px" viewBox="0 0 1000 1000" enable-background="new 0 0 1000 1000" xml:space="preserve">
<metadata> Svg Vector Icons : http://www.sfont.cn </metadata>
<g><g transform="translate(0.000000,511.000000) scale(0.100000,-0.100000)"><path d="M5468.3,5069.5c-597.2-101.2-1174.2-457.5-1550.7-957.5c-579-767.3-674.1-1765.3-253.1-2623.6c431.2-876.6,1271.3-1407,2237-1407c512.1,0,1000.1,141.7,1384.7,402.9l89,58.7L7974.6-7.7C9355.2-1279.1,9262.1-1202.1,9424-1228.4c97.1-16.2,234.8,26.3,319.8,97.2c147.8,121.5,200.4,358.3,115.4,524.3c-28.3,54.7-330,346.2-937.3,902.9c-491.9,451.4-902.9,834.1-913,848.2c-12.1,14.2,10.1,72.9,62.8,164c481.8,828,449.4,1880.7-83,2678.3c-382.6,574.9-1000.1,975.8-1672.2,1085.1C6083.7,5107.9,5699.1,5107.9,5468.3,5069.5z M6237.6,4565.4C6885.4,4452,7428,4049.2,7713.4,3472.2c155.9-317.8,192.3-481.8,192.3-880.6c0-398.8-36.5-562.8-192.3-880.6C7257.9,787.9,6164.7,354.6,5201.1,717c-660,247-1143.8,823.9-1275.4,1516.3c-30.4,164-32.4,556.7,0,716.6C4134.2,4031,5168.7,4753.7,6237.6,4565.4z"/><path d="M243.3,1526.8c-91.1-64.8-139.7-157.9-141.7-273.3c0-81,10.1-103.3,87-184.2c87.1-89.1,153.9-117.4,299.6-117.4h50.6l-8.1-240.9c-22.3-603.3,85-1050.7,344.2-1453.5c182.2-279.4,360.3-447.4,664-627.6c257.1-151.8,263.2-157.9,263.2-263.2c0-74.9-12.1-99.2-76.9-164c-42.5-40.5-170.1-133.6-285.4-204.5c-411-253-702.5-637.7-809.8-1062.8c-58.7-232.8-68.8-327.9-81-751L536.9-4261l-131.6-12.1c-157.9-12.2-166-18.2-245-123.5c-76.9-109.3-81-226.7-8.1-336c103.2-155.9-32.4-145.8,2103.4-145.8h1909l79,58.7c111.3,78.9,149.8,145.7,149.8,253.1c0,72.9-12.1,105.3-62.8,164c-85,97.2-129.6,117.4-261.1,131.6l-111.3,10.1l-12.1,435.3c-6.1,238.9-22.3,485.8-36.4,546.6C3784-2680,3478.3-2256.8,2923.6-1914.7c-184.2,111.3-238.9,166-261.1,259.1c-18.2,72.9,54.7,149.8,273.3,279.4c601.3,358.3,943.4,892.8,983.9,1538.5l12.1,172.1l-200.4,202.4c-269.2,277.3-536.5,678.2-651.9,987.9l-22.3,54.7H1686.7l-1372.5-2L243.3,1526.8z M3514.8,514.6c8.1-30.4,8.1-137.7,2-238.9c-14.2-234.8-109.3-536.5-224.7-708.5l-83-123.5h-979.8h-977.8L1152.3-364c-52.6,105.3-111.3,257.1-129.6,334c-38.5,164-62.8,467.6-42.5,544.6l12.1,52.6h1255.1h1255.1L3514.8,514.6z M2316.3-1979.5c66.8-105.3,168-190.3,330-275.3c198.4-103.2,404.9-267.2,516.2-404.9c198.4-247,327.9-617.4,354.3-1006.1c12.1-188.3,10.1-200.4-26.3-200.4c-66.8,0-287.5,115.4-577,303.7c-641.7,419.1-714.6,419.1-1342.2,0c-315.8-208.5-489.9-303.7-558.7-303.7c-46.6,0-46.6,0-34.4,218.6c38.5,639.7,289.5,1062.8,813.8,1364.5c253.1,145.7,295.6,180.2,358.3,281.4c34.4,54.7,74.9,99.2,89.1,99.2C2255.6-1902.6,2290-1937,2316.3-1979.5z"/></g></g>
</svg>