<?xml version="1.0" encoding="utf-8"?>
<!-- Svg Vector Icons : http://www.sfont.cn -->
<!DOCTYPE svg PUBLIC "-//W3C//DTD SVG 1.1//EN" "http://www.w3.org/Graphics/SVG/1.1/DTD/svg11.dtd">
<svg version="1.1" xmlns="http://www.w3.org/2000/svg" xmlns:xlink="http://www.w3.org/1999/xlink" x="0px" y="0px" viewBox="0 0 1000 1000" enable-background="new 0 0 1000 1000" xml:space="preserve">
<metadata> Svg Vector Icons : http://www.sfont.cn </metadata>
<g><g transform="translate(0.000000,511.000000) scale(0.100000,-0.100000)"><path d="M7132.4,3650.4V2290.7h215.2h215.2v1359.6V5010h-215.2h-215.2V3650.4z"/><path d="M4892.4,4356.6c-95.9-56.7-174.1-111.5-172.1-121.3c1.9-15.6,1259.8-2200.8,1328.3-2310.4l27.4-43l176.1,101.7c97.8,56.7,178,109.6,181.9,117.4c3.9,17.6-1340.1,2359.3-1355.7,2359.3C5072.4,4460.3,4990.2,4413.3,4892.4,4356.6z"/><path d="M3120,2599.8c-45-78.2-93.9-162.4-107.6-185.8c-25.4-41.1,5.9-60.6,1146.4-718c643.6-371.7,1177.7-676.9,1187.5-676.9c17.6,0,228.9,350.2,217.1,361.9c-9.8,9.8-2349.5,1359.6-2355.4,1359.6C3204.1,2740.7,3165,2676.1,3120,2599.8z"/><path d="M2437.2,99.7v-215.2h1369.4h1369.4V99.7v215.2H3806.7H2437.2V99.7z"/><path d="M4182.3-1483c-626-363.9-1148.3-669-1160.1-680.8c-13.7-13.7,11.7-76.3,82.2-199.5c95.9-170.2,103.7-178,142.8-152.6c21.5,13.7,549.7,318.9,1171.8,676.9c620.1,358,1128.8,661.2,1128.8,671c0,35.2-185.8,348.2-205.4,346.3C5332.6-821.7,4810.2-1121,4182.3-1483z"/><path d="M5401-2858.2c-365.8-635.8-665.1-1165.9-665.1-1177.7c0-19.6,297.4-205.4,332.6-207.4c25.4,0,1365.5,2322.1,1351.8,2343.6c-13.7,21.5-318.9,199.6-338.4,199.6C6072.1-1702.1,5766.9-2222.4,5401-2858.2z"/><path d="M7171.5-2118.8c-11.7-15.6-19.6-46.9-15.6-70.4c5.9-39.1,11.7-37.2,72.4,27.4l68.5,70.4h-50.9C7218.4-2091.4,7185.2-2105.1,7171.5-2118.8z"/><path d="M7351.5-2332c-152.6-154.6-201.5-213.2-195.6-246.5c3.9-35.2,37.2-11.7,207.4,160.4c152.6,154.6,201.5,213.2,195.6,246.5C7554.9-2136.4,7521.7-2159.8,7351.5-2332z"/><path d="M7351.5-2723.2c-152.6-154.6-201.5-213.3-195.6-246.5c3.9-35.2,37.2-11.7,207.4,160.4c152.6,154.6,201.5,213.2,195.6,246.5C7554.9-2527.6,7521.7-2551.1,7351.5-2723.2z"/><path d="M7351.5-3114.5c-152.6-154.6-201.5-213.2-195.6-246.5c3.9-35.2,37.2-11.7,207.4,160.4c152.6,154.6,201.5,213.2,195.6,246.5C7554.9-2918.9,7521.7-2942.4,7351.5-3114.5z"/><path d="M7351.5-3505.8c-152.6-154.6-201.5-213.2-195.6-246.5c3.9-35.2,37.2-11.7,207.4,160.4c152.6,154.6,201.5,213.2,195.6,246.5C7554.9-3310.1,7521.7-3333.6,7351.5-3505.8z"/><path d="M7351.5-3897c-152.6-154.6-201.5-213.2-195.6-246.5c3.9-35.2,37.2-11.7,207.4,160.4c152.6,154.6,201.5,213.2,195.6,246.5C7554.9-3701.4,7521.7-3724.9,7351.5-3897z"/><path d="M7351.5-4288.3c-152.6-154.6-201.5-213.2-195.6-246.5c3.9-35.2,37.2-11.7,207.4,160.4c152.6,154.6,201.5,213.2,195.6,246.5C7554.9-4092.6,7521.7-4116.1,7351.5-4288.3z"/><path d="M7408.2-4622.8c-80.2-82.1-140.8-152.6-135-160.4c25.4-23.5,88,13.7,189.8,117.4c72.4,74.3,101.7,117.4,95.8,146.7C7553-4482,7533.4-4495.7,7408.2-4622.8z"/></g></g>
</svg>