<?xml version="1.0" encoding="utf-8"?>
<!-- Svg Vector Icons : http://www.sfont.cn -->
<!DOCTYPE svg PUBLIC "-//W3C//DTD SVG 1.1//EN" "http://www.w3.org/Graphics/SVG/1.1/DTD/svg11.dtd">
<svg version="1.1" xmlns="http://www.w3.org/2000/svg" xmlns:xlink="http://www.w3.org/1999/xlink" x="0px" y="0px" viewBox="0 0 1000 1000" enable-background="new 0 0 1000 1000" xml:space="preserve">
<metadata> Svg Vector Icons : http://www.sfont.cn </metadata>
<g><g><path d="M237.8,999.5l559.4-0.2l92.1-862.1l-777.6,2.2L237.8,999.5z M505.9,426.8c133.5-1.5,237.5,62.1,232.1,142.3c-5.2,80.1-106.5,145.7-226.1,146.4c-119.6,0.7-223.5-63-232.1-142.3C271.1,493.8,372.3,428.3,505.9,426.8z M990,0.5v322.9h-68.5V69H78.5v254.3H10V0.5H990z M608.1,581.5l-78.4,0.7l-0.2,7.5c-1.9,24.9-8.4,41.8-19.6,50.6c-11,8.8-31.4,13.4-61.4,13.6c-32.2,0.3-55-4.4-68.7-13.6c-13.8-9.4-21.6-25.9-23.5-49.5l-0.8-6.8l-35,0.3l-2.1-22.5l35.3-0.3l-0.2-6.3c-1.9-23.6,3.3-40.1,15.7-49.8c12.5-9.7,35.3-14.7,67.9-15h11.1l1.4,33.4l-5.6,0.1c-19.7,0.3-32.3,2.3-37.9,6.3c-5.4,3.8-7.8,12.6-6.9,26.1l0.1,5l85.5-0.7c-0.8-26.4,5-44.3,17-54.2c12.2-9.6,35.5-14.8,69.7-15.1c33.2-0.3,55.8,4.3,67.7,13.8c11.9,9.6,17.2,27.6,16.4,53.9l30.7-0.3l-1.1,22.6l-30.5,0.3c-0.8,25-7,42.3-18.4,51.7c-11.2,9.3-32,14.1-61.9,14.3l-7,0.1l0.1-32.4l5.6-0.1c22.9-0.3,34.4-9.4,34.8-27.8V581.5z M608.8,558.8l-0.1-4.8c0.3-19.9-12.1-29.7-37.6-29.5c-26.5,0.3-39.7,10.3-39.4,30c0,0.2-0.2,1.8-0.5,5L608.8,558.8z M400.8,583.2l0.3,4.8c1.3,21.4,16.4,32.1,45,31.9c15.7-0.1,26.1-2.5,30.8-7.4c5-4.8,7.1-14.7,6.7-29.9L400.8,583.2z"/></g><g></g><g></g><g></g><g></g><g></g><g></g><g></g><g></g><g></g><g></g><g></g><g></g><g></g><g></g><g></g></g>
</svg>