<?xml version="1.0" encoding="utf-8"?>
<!-- Svg Vector Icons : http://www.sfont.cn -->
<!DOCTYPE svg PUBLIC "-//W3C//DTD SVG 1.1//EN" "http://www.w3.org/Graphics/SVG/1.1/DTD/svg11.dtd">
<svg version="1.1" xmlns="http://www.w3.org/2000/svg" xmlns:xlink="http://www.w3.org/1999/xlink" x="0px" y="0px" viewBox="0 0 1000 1000" enable-background="new 0 0 1000 1000" xml:space="preserve">
<metadata> Svg Vector Icons : http://www.sfont.cn </metadata>
<g><g transform="translate(0.000000,511.000000) scale(0.100000,-0.100000)"><path d="M3878.4,4412c-206.7-35.8-526.8-141.1-719.7-238.6C2319.9,3752,1767.2,2932.9,1691.7,2002.5c-45.7-580.5,89.5-1170.9,377.7-1640.1L2131,263l-77.5-73.6c-41.7-39.8-415.5-385.7-831-765.4C252.3-1464.5,166.9-1548,127.1-1653.4c-75.5-196.8,11.9-435.4,198.8-552.7c83.5-51.7,117.3-59.6,228.6-59.6c95.4,2,153.1,13.9,210.7,43.7c43.7,23.9,514.9,445.3,1049.7,938.3L2785-391l103.4-69.6c244.5-165,584.5-306.1,912.5-377.7c230.6-49.7,813.1-49.7,1043.7,0c660,141.2,1214.7,491,1606.3,1011.9c242.5,320.1,405.6,677.9,491,1075.5c61.6,288.3,61.6,773.3,0,1061.6c-117.3,540.7-351.9,974.1-737.6,1357.8c-407.5,403.6-880.7,648.1-1441.3,745.5C4544.4,4451.7,4107.1,4449.7,3878.4,4412z M4677.6,3877.2c447.3-77.5,809.1-256.4,1125.2-556.6c574.5-544.7,797.2-1318,598.4-2087.4c-51.7-200.8-226.6-556.6-355.9-727.6C5518.5-188.3,4598.1-498.4,3757.2-265.8c-343.9,93.4-741.5,336-986,598.4c-345.9,375.7-536.8,831-558.6,1339.9c-13.9,310.1,11.9,522.8,95.4,773.3C2637.9,3437.8,3657.8,4054.1,4677.6,3877.2z"/><path d="M7415.1,1843.5v-157.1l105.4-21.9c206.8-47.7,391.6-109.3,391.6-131.2c0-41.7-61.6-111.3-97.4-111.3c-17.9,0-43.7-9.9-57.6-23.9c-31.8-31.8-31.8-194.8,2-196.8c105.4-6,133.2-13.9,178.9-43.7c29.8-19.9,53.7-41.8,53.7-51.7c0-15.9,99.4-67.6,109.3-57.7c2,4,23.9,69.6,49.7,145.1c23.9,77.5,49.7,145.1,57.7,153.1c6,7.9,57.6-11.9,115.3-45.7c97.4-55.7,101.4-61.6,83.5-115.3c-9.9-29.8-45.7-87.5-79.5-127.2l-59.6-73.6H8091h-174.9l-61.6,75.5l-59.6,73.6l-2-91.4v-91.4l-222.7-111.3c-123.3-61.6-244.5-117.3-268.4-123.3c-53.7-13.9-53.7-15.9-15.9-141.2c15.9-53.7,29.8-103.4,29.8-111.3c0-9.9-49.7-15.9-109.3-15.9c-103.4,0-113.3-4-149.1-63.6c-85.5-139.2-73.6-248.5,29.8-278.3c107.4-29.8,186.9,0,306.2,113.3C7526.4,344.5,7645.7,428,7695.4,428c19.9,0,85.5-39.8,147.1-89.5c91.4-75.5,182.9-129.2,218.7-129.2c4,0-25.8,59.6-67.6,135.2c-43.7,73.6-69.6,137.2-59.6,139.2c39.8,15.9,151.1-95.4,212.7-208.7c33.8-63.6,73.6-133.2,89.5-155.1c27.8-37.8,31.8-35.8,83.5,25.8c29.8,35.8,63.6,63.6,75.5,63.6c13.9,0,47.7-45.7,77.5-99.4c51.7-93.4,61.6-99.4,204.8-143.1c91.4-27.8,149.1-55.7,149.1-73.5c0-51.7-79.5-157.1-139.2-180.9c-47.7-19.9-83.5-17.9-192.8,6C8264-228,8236.1-224,8152.6-247.9c-75.5-19.9-91.4-15.9-186.9,33.8c-95.4,51.7-123.3,83.5-242.5,272.4c-17.9,29.8-45.7,29.8-324-6c-230.6-27.8-314.1-45.7-345.9-73.6c-71.6-65.6-397.6-510.9-441.3-604.4c-33.8-73.6-41.7-127.2-41.7-298.2c0-192.8,4-216.7,55.7-302.2c97.4-169,206.8-214.7,526.8-224.6c198.8-4,258.4-17.9,401.6-89.5c21.9-9.9,29.8-49.7,29.8-141.1c2-95.4,15.9-163,59.6-266.4c57.7-137.2,59.6-145.1,59.6-497c2-401.6,19.9-475.1,163-671.9l71.6-97.4l109.3,11.9c204.8,23.8,302.2,97.4,471.2,349.9c73.6,109.3,174.9,236.6,226.6,282.3l91.4,85.5v218.7c0,270.4,15.9,302.2,252.5,501c125.2,105.4,184.9,173,222.7,248.5l51.7,105.4l-157.1,73.6c-131.2,63.6-167,91.4-218.7,171c-147.1,228.6-286.3,670-224.6,707.7c27.8,17.9,77.5-83.5,171-345.9c39.8-115.3,97.4-252.5,127.2-308.1c51.7-93.4,59.6-99.4,129.2-97.4c43.7,2,143.1,37.8,252.5,93.4c208.7,105.4,188.9,131.2,157.1-234.6c-31.8-369.8-67.6-504.9-218.7-840.9c-75.6-169-151.1-334-165-367.8c-17.9-39.8-29.8-51.7-29.8-27.8c-2,19.9-15.9,67.6-31.8,107.4l-29.8,71.6l-79.5-87.5c-79.5-89.5-139.2-232.6-139.2-343.9c-2-236.6-338-542.7-884.7-809.1c-449.3-218.7-779.3-296.2-1250.4-296.2c-733.6,0-1445.3,254.5-1395.6,499c4,27.8,73.6,145.1,151.1,260.4c123.3,184.9,153.1,218.7,238.6,258.4c83.5,39.8,99.4,55.7,111.3,115.3c6,37.8,23.9,119.3,39.8,180.9c35.8,145.1,35.8,302.2,0,371.7c-37.8,73.6-161,139.2-324,173c-73.6,15.9-143.1,29.8-153.1,29.8c-7.9,0-11.9,19.9-4,45.7c25.9,101.4-21.9,180.9-190.8,322.1c-163,135.2-471.2,300.2-522.9,280.3c-15.9-6-45.7-95.4-71.6-200.8c-77.5-343.9-33.8-548.7,190.8-874.7c137.2-200.8,178.9-310.1,248.5-636.2c31.8-159,59.6-294.2,59.6-298.2c0-31.8-234.6,145.1-387.7,290.2c-453.3,433.4-741.5,1025.8-833,1705.7l-21.9,169l-109.3,23.9c-59.6,13.9-121.3,25.8-133.2,27.8c-69.6,2,8-566.6,123.3-906.5c351.9-1055.6,1240.5-1827,2367.7-2057.6c254.5-51.7,747.5-71.6,1011.9-39.8c1288.2,151.1,2369.7,1141.1,2663.9,2437.3c67.6,292.2,89.5,769.4,49.7,1077.5c-149.1,1192.8-990,2216.6-2125.2,2590.4c-127.2,41.7-254.5,81.5-284.3,87.5l-55.7,11.9V1843.5z M9480.6-530.2c45.7-49.7,81.5-105.4,81.5-123.2c0-43.7-103.4-41.8-145.1,4c-29.8,33.8-93.4,184.9-93.4,224.7C9323.6-389,9403.1-440.7,9480.6-530.2z"/></g></g>
</svg>