<?xml version="1.0" encoding="utf-8"?>
<!-- Svg Vector Icons : http://www.sfont.cn -->
<!DOCTYPE svg PUBLIC "-//W3C//DTD SVG 1.1//EN" "http://www.w3.org/Graphics/SVG/1.1/DTD/svg11.dtd">
<svg version="1.1" xmlns="http://www.w3.org/2000/svg" xmlns:xlink="http://www.w3.org/1999/xlink" x="0px" y="0px" viewBox="0 0 1000 1000" enable-background="new 0 0 1000 1000" xml:space="preserve">
<metadata> Svg Vector Icons : http://www.sfont.cn </metadata>
<g><g transform="translate(0.000000,511.000000) scale(0.100000,-0.100000)"><path d="M3410.2,4899.5c-199.8-73.2-344.2-201.7-492.5-443c-41.5-67.3-318.4-490.5-617.1-941.5c-441.1-666.6-536-822.8-514.3-842.6c43.5-39.6,1934.4-1121.5,1964.1-1125.4c27.7-2,989,1489.4,1612,2500.1c156.3,253.2,316.5,486.6,369.9,541.9c156.3,158.2,312.5,253.2,510.3,310.5c114.7,33.6,81.1,35.6-1305.4,35.6C3598.1,4935.1,3507.1,4933.1,3410.2,4899.5z"/><path d="M6420.6,4341.8c-65.3-9.9-182-47.5-259.1-85c-219.6-108.8-312.5-223.5-640.8-791.2c-156.2-271-282.8-502.4-282.8-514.3s116.7-223.5,261.1-470.7c142.4-247.2,259.1-456.9,259.1-464.8c0-7.9-166.1-108.8-371.8-223.5c-231.4-130.5-356-209.7-330.3-213.6c280.9-37.6,2555.5-255.2,2563.4-245.3c21.8,25.7,892.1,2241,882.2,2250.9c-4,4-168.1-85.1-362-197.8c-193.9-112.7-360-201.8-365.9-197.8c-7.9,4-108.8,178-227.5,385.7c-118.7,209.7-253.2,421.3-298.7,472.7C7041.6,4276.5,6733.1,4385.3,6420.6,4341.8z"/><path d="M7795.2,1048.5c-538-310.5-989-569.6-1002.8-577.5c-15.8-9.9,126.6-263.1,425.2-761.5l449-745.7l662.6,4l662.6,5.9l148.3,71.2c178,87,288.8,178,381.7,320.4c102.9,154.3,152.3,318.4,152.3,506.3c0,235.4-43.5,344.2-300.7,755.6C9249,827,9067,1125.7,8972.1,1287.9c-94.9,164.2-180,302.6-185.9,310.5C8778.2,1606.3,8333.2,1359.1,7795.2,1048.5z"/><path d="M1337.3,1345.2C674.7,1278,116.9,1220.6,101.1,1218.6c-15.8,0,136.5-94.9,342.2-211.6C647,890.3,813.2,787.5,813.2,777.6c0-9.9-138.5-257.1-308.6-551.8C334.5-69,182.2-349.8,168.4-399.3c-43.5-144.4-35.6-389.7,17.8-520.2c41.5-100.9,1402.3-2474.4,1412.2-2462.5c2,2-9.9,47.5-27.7,100.9c-21.8,67.2-31.6,172.1-33.6,326.3c0,193.8,7.9,247.2,49.4,365.9c43.5,120.7,1169,2110.4,1234.2,2181.7c19.8,21.7,89-9.9,385.7-182c197.8-116.7,363.9-207.7,365.9-205.7c4,3.9-195.8,516.2-441.1,1139.3l-449,1131.4l-69.2-2C2575.5,1471.8,2001.9,1414.4,1337.3,1345.2z"/><path d="M5847-1694.8c-456.9-545.9-830.7-1002.8-830.7-1014.7c0-13.8,373.8-468.7,830.7-1014.7l830.7-990.9l9.9,419.4l9.9,421.3l692.3,9.9l692.3,9.9l132.5,65.3c219.5,106.8,288.8,201.7,801.1,1093.8c253.2,439.1,567.7,987,698.2,1214.4c182,316.5,219.5,393.6,160.2,324.4c-108.8-124.6-318.4-265-496.4-330.3l-148.3-53.4l-1269.8-5.9l-1271.8-6l-4,423.3l-5.9,425.3L5847-1694.8z"/><path d="M2617-1702.7c-381.7-652.7-508.3-882.1-540-973.1c-189.9-543.9,164.2-1121.5,743.7-1208.5c85-11.9,441.1-17.8,909.8-15.8l771.4,5.9v1157.1v1157.1l-903.9,6l-903.9,3.9L2617-1702.7z"/></g></g>
</svg>