<?xml version="1.0" encoding="utf-8"?>
<!-- Svg Vector Icons : http://www.sfont.cn -->
<!DOCTYPE svg PUBLIC "-//W3C//DTD SVG 1.1//EN" "http://www.w3.org/Graphics/SVG/1.1/DTD/svg11.dtd">
<svg version="1.1" xmlns="http://www.w3.org/2000/svg" xmlns:xlink="http://www.w3.org/1999/xlink" x="0px" y="0px" viewBox="0 0 1000 1000" enable-background="new 0 0 1000 1000" xml:space="preserve">
<metadata> Svg Vector Icons : http://www.sfont.cn </metadata>
<g><g transform="translate(0.000000,511.000000) scale(0.100000,-0.100000)"><path d="M2720.2,4978.6c5.9-21.5,223-520.5,481.3-1111.4c258.3-588.9,469.6-1083.9,469.6-1101.6c0-113.5-354.2-516.6-587-665.2c-252.4-164.4-577.2-258.3-884.4-258.3c-176.1,0-408.9,29.3-465.7,58.7c-15.7,9.8-248.5,518.5-518.5,1132.9C656,4317.3,736.2,4213.6,560.1,3875.1C18.1,2826.4,114,1476.3,783.2,732.8C914.3,588,1158.9,408,1352.6,316c317-150.7,659.4-213.3,1174-211.3c367.8,0,776.8-93.9,1095.7-252.4c326.8-164.4,334.6-170.2,2504.5-2334.2c1506.6-1504.6,2109.2-2091.6,2201.2-2150.3c340.5-219.1,735.7-209.3,1064.4,25.4c275.9,195.7,420.7,514.6,395.2,872.6c-7.8,131.1-23.5,191.7-72.4,293.5c-74.4,152.6-92,170.2-2533.8,2621.9C6138.4,229.9,5451.7,934.3,5408.6,1000.8c-86.1,133-156.5,272-203.5,401.1c-31.3,86.1-35.2,170.2-37.2,753.3c-2,651.5-2,655.5-54.8,841.3c-215.2,747.4-878.5,1455.7-1702.3,1817.7c-193.7,84.1-457.9,166.3-608.5,187.8C2714.4,5015.8,2708.5,5013.9,2720.2,4978.6z M9083.1-3309.6c340.5-172.2,424.6-612.4,174.1-909.8c-27.4-33.3-103.7-88-170.2-119.4c-95.9-48.9-144.8-60.6-246.5-60.6c-164.4,0-252.4,27.4-367.8,115.4c-262.2,197.6-299.4,587-82.2,833.5c74.3,84.1,178,150.7,289.6,187.8C8774-3231.3,8977.5-3254.8,9083.1-3309.6z"/></g></g>
</svg>