<?xml version="1.0" encoding="utf-8"?>
<!-- Svg Vector Icons : http://www.sfont.cn -->
<!DOCTYPE svg PUBLIC "-//W3C//DTD SVG 1.1//EN" "http://www.w3.org/Graphics/SVG/1.1/DTD/svg11.dtd">
<svg version="1.1" xmlns="http://www.w3.org/2000/svg" xmlns:xlink="http://www.w3.org/1999/xlink" x="0px" y="0px" viewBox="0 0 1000 1000" enable-background="new 0 0 1000 1000" xml:space="preserve">
<metadata> Svg Vector Icons : http://www.sfont.cn </metadata>
<g><g transform="translate(0.000000,511.000000) scale(0.100000,-0.100000)"><path d="M6186.3,4645.8c-876.8-103.2-1614.8-745.9-1842.9-1606.9c-224.2-851,99.2-1779.4,805.4-2307.1c200.4-150.8,505.9-297.6,757.8-365c172.6-45.6,232.1-51.6,521.7-53.6c242,0,361.1,7.9,456.3,31.7c220.2,55.5,464.2,152.7,644.7,255.9c95.2,55.5,178.5,97.2,188.5,93.2c7.9-4,369-331.3,799.5-730c434.5-400.7,819.3-740,861-757.8c311.4-142.8,642.7,214.3,478.1,513.8c-29.7,49.6-291.6,307.5-700.3,680.4c-359.1,331.3-712.2,654.6-779.6,720.1l-127,119l89.3,170.6c412.6,779.6,345.2,1702.1-170.6,2386.5C7707.9,4407.8,6948.1,4733.1,6186.3,4645.8z M6914.3,4140c636.8-186.5,1103-686.4,1229.9-1317.2c51.6-246,33.7-609-39.7-835.2c-150.8-476.1-472.1-849-908.6-1061.3c-287.6-136.9-388.8-158.7-767.7-156.7c-315.4,0-335.3,2-517.8,63.5c-200.4,67.5-442.4,200.4-601.1,331.3c-218.2,180.5-434.5,511.8-525.7,803.4c-313.4,999.8,325.3,2031.4,1380.7,2221.8C6345,4223.3,6717.9,4197.5,6914.3,4140z"/><path d="M3343.6,4098.3c-738-222.2-2922.1-906.6-2965.7-930.4c-81.3-41.7-190.4-158.7-238.1-255.9c-39.7-83.3-39.7-107.1-39.7-3590.6c0-3852.5-7.9-3586.7,119-3652.1c31.7-15.9,91.3-29.8,130.9-29.8c55.5,0,2233.7,658.6,2961.8,896.7c156.7,49.6,285.7,162.7,351.1,303.5l47.6,99.2V446.2c0,3273.2-2,3513.3-33.7,3566.8c-35.7,59.5-134.9,117-198.4,115.1C3458.6,4128.1,3399.1,4114.2,3343.6,4098.3z"/><path d="M4087.5-871c0-2628.5,7.9-2471.8-130.9-2632.5c-37.7-43.7-97.2-97.2-132.9-119c-33.7-21.8-599.1-206.3-1253.7-410.6c-654.6-204.3-1204.2-378.9-1220-388.8c-15.9-9.9,884.8-15.9,2023.4-17.9h2053.2l307.5,184.5c210.3,125,317.4,200.4,341.2,242c29.8,53.6,33.7,174.6,45.6,1229.9c15.9,1341,29.8,1231.9-172.6,1366.8c-59.5,37.7-198.4,156.7-309.5,259.9l-202.3,192.4v569.3v569.4L5323.4,230c-474.1,230.1-924.4,668.5-1164.5,1132.7l-71.4,138.9V-871z"/></g></g>
</svg>