<?xml version="1.0" encoding="utf-8"?>
<!-- Svg Vector Icons : http://www.sfont.cn -->
<!DOCTYPE svg PUBLIC "-//W3C//DTD SVG 1.1//EN" "http://www.w3.org/Graphics/SVG/1.1/DTD/svg11.dtd">
<svg version="1.1" xmlns="http://www.w3.org/2000/svg" xmlns:xlink="http://www.w3.org/1999/xlink" x="0px" y="0px" viewBox="0 0 1000 1000" enable-background="new 0 0 1000 1000" xml:space="preserve">
<metadata> Svg Vector Icons : http://www.sfont.cn </metadata>
<g><path d="M826.7,10H173.3C83.1,10,10,83.1,10,173.3v653.3C10,916.9,83.1,990,173.3,990h653.3c90.2,0,163.3-73.1,163.3-163.3V173.3C990,83.1,916.9,10,826.7,10z M826.7,532.7c0,18-14.7,37.3-32.8,37.3h-57.4c-5.4,11.6-13,35.9-22.8,53.2l40.6,38.3c12.8,12.8,12.9,33.5,0.2,46.3l-46,46.3c-12.8,12.8-33,12.8-45.7,0l-39.4-40.5c-17.3,9.8-41.6,17.5-53.2,22.9V794c0,18.1-19.2,32.8-37.3,32.8h-65.5c-18.1,0-37.3-14.7-37.3-32.8v-57.4c-11.7-5.4-35.9-13-53.2-22.9l-38.3,40.6c-12.8,12.8-33.6,12.9-46.3,0.2l-46.3-46c-12.8-12.8-12.8-33,0-45.7l40.6-39.4c-9.8-17.4-17.4-41.6-22.9-53.2h-57.4c-18.1,0-32.8-19.2-32.8-37.3v-65.5c0-18.1,14.7-37.3,32.8-37.3h57.4c5.4-11.6,13-35.9,22.8-53.2l-40.6-38.3c-12.8-12.8-12.9-33.5-0.1-46.3l46-46.3c12.8-12.8,33-12.8,45.8,0l39.4,40.6c17.3-9.8,41.6-17.5,53.2-22.9v-57.5c0-18.1,19.2-32.7,37.3-32.7h65.5c18,0,37.3,14.7,37.3,32.7v57.4c11.6,5.4,35.9,13,53.2,22.9l38.3-40.6c12.8-12.8,33.4-12.9,46.3-0.1l46.3,46c12.8,12.8,12.8,33,0,45.7l-40.5,39.4c9.8,17.3,17.5,41.6,22.9,53.2h57.4c18.1,0,32.8,19.2,32.8,37.3L826.7,532.7L826.7,532.7z"/><path d="M352.7,500c0,81.4,66,147.3,147.3,147.3s147.3-66,147.3-147.3s-66-147.3-147.3-147.3S352.7,418.6,352.7,500L352.7,500L352.7,500z"/></g>
</svg>