<?xml version="1.0" encoding="utf-8"?>
<!-- Svg Vector Icons : http://www.sfont.cn -->
<!DOCTYPE svg PUBLIC "-//W3C//DTD SVG 1.1//EN" "http://www.w3.org/Graphics/SVG/1.1/DTD/svg11.dtd">
<svg version="1.1" xmlns="http://www.w3.org/2000/svg" xmlns:xlink="http://www.w3.org/1999/xlink" x="0px" y="0px" viewBox="0 0 1000 1000" enable-background="new 0 0 1000 1000" xml:space="preserve">
<metadata> Svg Vector Icons : http://www.sfont.cn </metadata>
<g><g transform="translate(0.000000,511.000000) scale(0.100000,-0.100000)"><path d="M3107.1,4881.4c-172.5-54.9-327.3-192.1-405.7-362.6c-41.2-88.2-41.2-111.7-47-1283.9l-5.9-1193.7l80.4,117.6c90.2,137.2,274.4,313.6,401.8,390.1l88.2,51v860.5v860.5h3051.9h3049.9l-11.8-797.8c-7.8-437.1-13.7-1311.3-13.7-1940.5V439.8H6521.6c-1524.9,0-2773.5-5.9-2773.5-13.7c0-9.8,60.8-45.1,135.2-78.4c337.1-158.8,758.6-509.6,993.8-827.2l115.6-158.8h201.9h199.9v-333.2c0-305.8-2-333.2-35.3-333.2c-31.4,0-31.4-13.7,15.7-205.8l49-205.8h1266.2c1240.8,0,1268.2,0,1317.2,39.2c74.5,58.8,101.9,156.8,66.7,241.1c-52.9,125.4-74.5,131.3-527.3,131.3H7139v333.2v331.3l1123.2,5.9l1121.2,5.9l109.8,51c223.5,105.8,352.8,276.4,390.1,519.4c13.7,92.1,19.6,825.2,15.7,2291.3l-5.9,2156.1l-45.1,113.7c-54.9,137.2-192.1,282.3-327.4,346.9l-98,49l-3116.6,3.9C3781.4,4904.9,3173.7,4901,3107.1,4881.4z"/><path d="M5220.1,3023.2c-33.3-143.1-60.8-272.5-60.8-286.2c0-19.6-52.9-21.6-239.1-11.8c-539,27.4-1003.6-92.1-1395.6-364.6c-186.2-129.4-437.1-390.1-562.5-584.1c-317.5-495.9-533.1-1405.4-470.4-1981.7c21.6-196,56.8-354.8,96-425.3c11.8-21.6,25.5,23.5,41.2,150.9c33.3,254.8,74.5,446.9,143.1,664.5c276.4,874.2,956.5,1517.1,1722.9,1628.8c139.2,19.6,380.3,13.7,405.7-9.8c3.9-5.9-29.4-137.2-74.5-296c-47-156.8-80.4-290.1-74.5-294c11.8-11.8,1681.7,701.7,1681.7,717.4c0,27.4-227.4,297.9-558.6,664.5c-178.4,199.9-376.3,425.3-437.1,499.8c-60.8,76.4-119.6,149-133.3,162.7C5286.7,3280,5269.1,3229,5220.1,3023.2z"/><path d="M1993.8,194.8c-974.2-247-1703.3-1036.9-1862.1-2015c-190.1-1170.2,492-2322.7,1613.1-2726.5c511.6-182.3,1142.7-182.3,1654.3,0c597.8,215.6,1131,693.9,1399.5,1260.4c172.5,358.7,233.3,644.9,233.3,1080c-2,546.9-117.6,931-413.6,1376c-313.6,472.4-829.1,850.7-1334.8,983.9l-180.3,47L3034.6-7.1c-39.2-115.7-70.6-219.5-70.6-229.3c0-11.8,76.4-45.1,172.5-74.5c544.9-176.4,966.3-521.4,1207.4-991.8c256.8-501.8,296-1021.2,113.7-1560.2c-209.7-621.3-691.9-1078-1346.6-1278c-164.6-49-198-52.9-539-52.9c-337.1,0-374.4,3.9-535.1,52.9c-346.9,107.8-629.2,278.3-878.1,535.1c-254.8,262.7-423.4,568.4-513.5,929.1c-62.7,252.8-58.8,703.7,11.8,962.4c145.1,546.9,476.3,978.1,958.5,1240.7c129.4,72.5,511.6,207.8,580.2,207.8c23.5,0,45.1,5.9,49,15.7c7.8,9.8-45.1,364.6-68.6,468.5C2172.1,234,2117.2,226.2,1993.8,194.8z"/><path d="M2082-577.5C1392-800.9,947.1-1349.7,876.5-2063.2l-13.7-143.1h127.4h129.4l11.8,113.7c25.5,213.7,70.6,366.5,160.7,552.7c76.4,154.8,121.5,215.6,258.7,352.8c192.1,192.1,384.2,303.8,641,374.4c84.3,23.5,156.8,43.1,158.8,45.1c2,2-2,35.3-11.8,72.5c-9.8,37.2-23.5,90.2-29.4,121.5C2293.6-508.9,2291.7-508.9,2082-577.5z"/><path d="M2266.2-1030.3c-499.8-131.3-866.4-554.7-915.4-1062.4l-11.8-113.7h123.5h123.5l11.8,129.4c7.9,98,29.4,168.6,90.2,292.1c145,292,417.5,493.9,735,542.9l149,25.5v111.7v113.7l-82.3-2C2442.6-993,2342.7-1010.7,2266.2-1030.3z"/><path d="M2393.6-1545.8c-196-54.9-372.4-205.8-456.7-384.2c-33.3-72.5-41.2-127.4-41.2-286.2c0-174.5,5.9-207.8,54.9-305.8c184.3-374.4,670.4-497.9,1027.1-262.6c211.7,139.2,311.7,350.8,296,619.4c-21.6,356.7-286.2,611.6-662.5,637C2538.7-1524.2,2444.6-1532.1,2393.6-1545.8z M2748.4-1971.1c121.5-86.3,152.9-299.9,62.7-427.3c-143.1-198-482.2-119.6-507.7,117.6c-13.7,117.6,2,174.4,66.7,252.8C2472-1908.4,2626.9-1884.9,2748.4-1971.1z"/><path d="M3563.8-2210.2c-3.9-13.7-13.7-80.4-19.6-145.1c-37.2-415.5-382.2-766.4-823.2-835l-149-25.5v-111.7v-113.7h74.5c43.1,0,143.1,17.6,227.4,39.2c523.3,133.3,909.5,590,936.9,1107.5l5.9,98l-123.5,5.9C3606.9-2186.7,3569.7-2192.6,3563.8-2210.2z"/><path d="M4032.3-2318c-17.6-178.4-78.4-401.8-149-544.9c-221.5-450.8-678.2-766.4-1168.2-807.6l-143.1-11.7v-123.5v-125.4h98c229.3,0,562.5,105.8,817.4,258.7c248.9,149,525.3,466.5,654.7,752.7c72.5,160.7,133.3,409.7,139.2,586.1l5.9,137.2l-121.5,5.9l-119.6,5.9L4032.3-2318z"/></g></g>
</svg>