<?xml version="1.0" encoding="utf-8"?>
<!-- Svg Vector Icons : http://www.sfont.cn -->
<!DOCTYPE svg PUBLIC "-//W3C//DTD SVG 1.1//EN" "http://www.w3.org/Graphics/SVG/1.1/DTD/svg11.dtd">
<svg version="1.1" xmlns="http://www.w3.org/2000/svg" xmlns:xlink="http://www.w3.org/1999/xlink" x="0px" y="0px" viewBox="0 0 1000 1000" enable-background="new 0 0 1000 1000" xml:space="preserve">
<metadata> Svg Vector Icons : http://www.sfont.cn </metadata>
<g><g transform="translate(0.000000,511.000000) scale(0.100000,-0.100000)"><path d="M8683.3,3480.7c-61.8-19.9-153.5-59.8-203.3-89.7c-57.8-33.9-779.5-773.5-2067.3-2121.2C5324.1,133.5,4379.2-855.3,4307.4-927.1l-125.6-129.6L2890,235.2c-709.7,709.7-1329.7,1317.8-1379.6,1349.7c-127.6,85.7-315,139.5-486.4,139.5c-265.2,0-484.4-95.7-671.8-293.1C85,1152.2,27.2,765.5,192.7,400.7c43.9-97.7,97.7-165.5,229.3-295c95.7-89.7,851.3-851.3,1680.6-1690.6c1588.9-1608.8,1602.8-1622.8,1846-1686.6c221.3-57.8,502.4-21.9,701.7,91.7c99.7,55.8,153.5,107.7,400.7,376.8c247.2,271.1,4242.3,4461.6,4326,4537.4c45.9,43.9,143.5,131.6,217.3,197.4c147.5,133.6,251.2,317,293.1,524.3c65.8,332.9-133.6,759.5-438.6,937C9235.5,3518.6,8916.6,3554.5,8683.3,3480.7z"/></g></g>
</svg>