<?xml version="1.0" encoding="utf-8"?>
<!-- Svg Vector Icons : http://www.sfont.cn -->
<!DOCTYPE svg PUBLIC "-//W3C//DTD SVG 1.1//EN" "http://www.w3.org/Graphics/SVG/1.1/DTD/svg11.dtd">
<svg version="1.1" xmlns="http://www.w3.org/2000/svg" xmlns:xlink="http://www.w3.org/1999/xlink" x="0px" y="0px" viewBox="0 0 1000 1000" enable-background="new 0 0 1000 1000" xml:space="preserve">
<metadata> Svg Vector Icons : http://www.sfont.cn </metadata>
<g><g transform="translate(0.000000,511.000000) scale(0.100000,-0.100000)"><path d="M2144.2,3797.1c-165.5-40.9-307.6-148-389.4-295.9l-58.4-105.1l-5.8-2460.8c-5.8-2815.1-19.5-2579.5,169.4-2768.4c192.7-190.8-202.5-173.3,3944.3-173.3h3644.5l118.8,60.3c142.1,70.1,241.4,179.1,295.9,325.1c38.9,103.2,38.9,138.2,35,1752.1l-5.8,1649l-54.5,111c-58.4,118.8-144.1,204.4-272.6,272.6l-81.8,44.8l-1353,11.7c-1117.5,9.7-1376.4,17.5-1489.3,42.8c-486.7,107.1-708.7,323.2-710.6,685.3c0,294-101.2,539.3-292,716.4c-64.2,60.4-144.1,112.9-188.8,126.5c-58.4,17.5-475,23.4-1662.6,21.4C2915.1,3810.7,2177.3,3804.9,2144.2,3797.1z"/><path d="M466,2177.3c-124.6-48.7-266.7-181-323.2-305.6l-42.8-91.5V-692.3v-2472.5l44.8-91.5c58.4-116.8,173.3-231.7,292-290.1l91.5-46.7h3669.8h3669.8l89.5,40.9c132.4,62.3,231.7,159.6,294,290.1c54.5,114.9,54.5,120.7,54.5,482.8v364.1H5255.2c-2544.5,0-3074,5.8-3181.1,27.2c-379.6,81.8-687.2,389.4-769,769c-21.4,105.1-27.3,467.2-27.3,1983.8v1853.4l-354.3-1.9C615.9,2216.3,553.6,2210.4,466,2177.3z"/></g></g>
</svg>